<?xml version="1.0" encoding="UTF-8"?>
<svg width="1200pt" height="1200pt" version="1.1" viewBox="0 0 1200 1200" xmlns="http://www.w3.org/2000/svg">
 <path d="m388.69 1051.7-116.86-67.477 458.29-793.78 116.86 67.453zm-125.4-18.285 0.14453 100.26 86.902-50.016zm539.06-968.08-48.793 84.516 116.86 67.453 48.793-84.516c4.2852-7.4297 5.4102-16.152 3.1914-24.516-2.2578-8.3633-7.5977-15.348-15.023-19.645l-60.863-35.137c-4.8711-2.8203-10.43-4.3086-16.055-4.3086-11.582 0.011718-22.355 6.1914-28.105 16.152zm169.55 210.57-60.887-35.172 48.793-84.504c10.547-18.289 13.332-39.613 7.8711-60.086-5.4844-20.473-18.59-37.559-36.863-48.109l-60.863-35.137c-12-6.9375-25.645-10.598-39.492-10.598-28.285 0-54.613 15.168-68.699 39.574l-542.25 939.21c-2.0625 3.5742-3.1445 7.6211-3.1445 11.746l0.23828 181.37c0.023437 8.3633 4.4766 16.105 11.723 20.27 3.6367 2.0898 7.6914 3.1445 11.723 3.1445 4.0547 0 8.0898-1.0312 11.699-3.1211l157.22-90.48c3.5625-2.0508 6.5391-5.0156 8.6055-8.5938l470.02-814.09 40.598 23.426-121.9 211.12c-6.4688 11.219-2.6289 25.559 8.5781 32.016 3.6836 2.1367 7.7148 3.1445 11.699 3.1445 8.1133 0 15.984-4.1875 20.316-11.723l133.6-231.38c6.4688-11.199 2.6289-25.562-8.582-32.016z" fill-rule="evenodd"/>
</svg>
