<svg xmlns="http://www.w3.org/2000/svg" version="1.1" x="0" y="0" viewBox="0 0 337.624 310.966" xml:space="preserve" id="svg37" width="337.624" height="310.966"><style type="text/css" id="style2">.st3{fill:#e24329}.st4{fill:#fca326}.st5{fill:#fc6d26}</style><g id="logo_art" transform="translate(-124.226 -124.017)"><g id="g13"><path id="path50_2_" class="st3" d="M293.026 434.983l62.199-191.322H230.918z"/><path id="path66_6_" class="st4" d="M143.798 243.662l-18.941 58.126c-1.714 5.278.137 11.104 4.661 14.394l163.509 118.801z"/><path id="path74_2_" class="st3" d="M143.798 243.662h87.12l-37.494-115.224c-1.919-5.895-10.282-5.895-12.27 0z"/><path id="path82_6_" class="st4" d="M442.346 243.662l18.873 58.126c1.714 5.278-.137 11.104-4.661 14.394L293.026 434.983z"/><path id="path86_2_" class="st3" d="M442.346 243.662h-87.12l37.425-115.224c1.919-5.895 10.282-5.895 12.27 0z"/><path class="st5" id="polygon9" d="M442.346 243.662l-149.32 191.321 62.199-191.321z"/><path class="st5" id="polygon11" d="M230.918 243.662l62.108 191.321-149.228-191.321z"/></g></g></svg>