<svg height="100" width="100" xmlns="http://www.w3.org/2000/svg"><path d="M73 10h-6l-2.8 22.4-23.9-.5L43 10h-6l-2.7 21.8-22-.5-.9 5.9 22.1.5-3 23.8L8 61l-.9 6 22.7.5L27 90h6l2.8-22.4 23.9.5L57 90h6l2.7-21.8 22 .5.9-5.9-22.1-.5 3-23.8L92 39l.9-5.9-22.7-.5L73 10zM60.5 62.1l-23.9-.5 3-23.8 23.9.5-3 23.8z"/><path d="M73 7.5h-6c-1.5 0-2.3 1.1-2.5 2.5-.9 7.5-1.9 15-2.8 22.4l2.5-2.5c-8-.2-16-.3-23.9-.5l2.5 2.5L45.5 10c.2-1.4-1.3-2.5-2.5-2.5h-6c-1.5 0-2.3 1.1-2.5 2.5-.9 7.3-1.8 14.5-2.7 21.8l2.5-2.5c-7.3-.2-14.6-.3-22-.5-1 0-2.3.8-2.4 1.8-.3 2-.6 4-.9 5.9-.2 1.6.6 3.1 2.4 3.2 7.4.2 14.7.3 22.1.5L31 37.7c-1 7.9-2 15.8-3 23.8l2.5-2.5c-7.5-.2-15-.3-22.5-.5-1 0-2.3.8-2.4 1.8-.3 2-.6 4-.9 5.9-.2 1.6.6 3.1 2.4 3.2 7.6.2 15.2.3 22.7.5l-2.5-2.5c-.9 7.5-1.9 15-2.8 22.6-.2 1.4 1.3 2.5 2.5 2.5h6c1.5 0 2.3-1.1 2.5-2.5.9-7.5 1.9-15 2.8-22.4l-2.5 2.5c8 .2 16 .3 23.9.5l-2.5-2.5L54.5 90c-.2 1.4 1.3 2.5 2.5 2.5h6c1.5 0 2.3-1.1 2.5-2.5.9-7.3 1.8-14.5 2.7-21.8l-2.5 2.5c7.3.2 14.6.3 22 .5 1 0 2.3-.8 2.4-1.8.3-2 .6-4 .9-5.9.2-1.6-.6-3.1-2.4-3.2-7.4-.2-14.7-.3-22.1-.5l2.5 2.5c1-7.9 2-15.8 3-23.8L69.5 41c7.5.2 15.1.3 22.6.5 1 0 2.3-.8 2.4-1.8.3-2 .6-4 .9-5.9.2-1.6-.6-3.1-2.4-3.2-7.6-.2-15.2-.3-22.7-.5l2.5 2.5c.9-7.5 1.9-15 2.8-22.6.4-3.2-4.6-3.2-5 0-.9 7.5-1.9 15-2.8 22.6-.2 1.4 1.3 2.5 2.5 2.5 7.6.2 15.2.3 22.7.5-.8-1.1-1.6-2.1-2.4-3.2-.3 2-.6 4-.9 5.9l2.4-1.8c-7.6-.2-15.1-.3-22.7-.5-1.5 0-2.3 1.2-2.5 2.5-1 7.9-2 15.8-3 23.8-.2 1.4 1.3 2.5 2.5 2.5 7.4.2 14.7.3 22.1.5-.8-1.1-1.6-2.1-2.4-3.2-.3 2-.6 4-.9 5.9l2.4-1.8c-7.3-.2-14.6-.3-22-.5-1.5 0-2.3 1.2-2.5 2.5-.9 7.3-1.8 14.5-2.7 21.8l2.5-2.5h-6l2.5 2.5 2.7-21.9c.2-1.4-1.3-2.5-2.5-2.5-8-.2-16-.3-23.9-.5-1.5 0-2.3 1.2-2.5 2.5-.9 7.5-1.9 15-2.8 22.4l2.5-2.5h-6l2.5 2.5c.9-7.5 1.9-15 2.8-22.6.2-1.4-1.3-2.5-2.5-2.5-7.6-.2-15.2-.3-22.7-.5.8 1.1 1.6 2.1 2.4 3.2.3-2 .6-4 .9-5.9l-2.4 1.8c7.5.2 15.1.3 22.6.5 1.5 0 2.3-1.2 2.5-2.5 1-7.9 2-15.8 3-23.8.2-1.4-1.3-2.5-2.5-2.5-7.4-.2-14.7-.3-22.1-.5.8 1.1 1.6 2.1 2.4 3.2.3-2 .6-4 .9-5.9l-2.4 1.8c7.3.2 14.6.3 22 .5 1.5 0 2.3-1.2 2.5-2.5.9-7.3 1.8-14.5 2.7-21.8L37 12.5h6L40.5 10l-2.7 21.9c-.2 1.4 1.3 2.5 2.5 2.5 8 .2 16 .3 23.9.5 1.5 0 2.3-1.2 2.5-2.5.9-7.5 1.9-15 2.8-22.4L67 12.5h6c3.2 0 3.2-5 0-5z"/><path d="M60.5 59.6c-8-.2-16-.3-23.9-.5l2.5 2.5c1-7.9 2-15.8 3-23.8l-2.5 2.5c8 .2 16 .3 23.9.5L61 38.3c-1 7.9-2 15.8-3 23.8-.4 3.2 4.6 3.2 5 0 1-7.9 2-15.8 3-23.8.2-1.4-1.3-2.5-2.5-2.5-8-.2-16-.3-23.9-.5-1.5 0-2.3 1.2-2.5 2.5-1 7.9-2 15.8-3 23.8-.2 1.4 1.3 2.5 2.5 2.5 8 .2 16 .3 23.9.5 3.2.1 3.2-4.9 0-5z"/></svg>