<svg height="100" width="100" xmlns="http://www.w3.org/2000/svg" viewBox="0 0 100 100"><path d="M25.1 72.5l-1.7 1.7a1.6 1.6 0 102.3 2.3l1.7-1.7a1.6 1.6 0 10-2.3-2.3zm6.7-6.8l-3.4 3.4a1.6 1.6 0 102.3 2.3l3.4-3.4a1.6 1.6 0 10-2.3-2.3zm5.1-5l-1.7 1.7a1.6 1.6 0 102.3 2.3l1.7-1.7a1.6 1.6 0 10-2.3-2.3z"/><path d="M94.5 79.1l-6.8-6.8a1.6 1.6 0 00-2.3 2.3l5.7 5.7-10.8 10.8-3.1-3.1 5.4-5.4a1.6 1.6 0 00-2.3-2.3l-5.4 5.4-3-3 2.7-2.7a1.6 1.6 0 10-2.3-2.3l-2.7 2.7-3-3 4.4-4.1a1.6 1.6 0 00-2.3-2.3l-4.3 4.3-3-3 2.7-2.7a1.6 1.6 0 10-2.3-2.3L59.2 70l-3-3 5.4-5.4a1.6 1.6 0 00-2.3-2.3l-5.4 5.4-4-4 10.9-10.8 16.3 16.3a1.6 1.6 0 002.3-2.3L63 47.6l18.4-18.3 3.2-3.3a8.1 8.1 0 002.3-4.5l.7-5.1a3.8 3.8 0 000-.7l.5-.3 2.6-2.6a2.5 2.5 0 00-3.5-3.5l-2.6 2.6-.2.4h-1l-5.1.7a8.1 8.1 0 00-4.5 2.3l-3.3 3.3-6 6a1.6 1.6 0 102.3 2.3l4.9-4.9 3.1 3 3.2 3.2-18.4 18.3-35.7 35.9-6.4-6.4 22.7-22.7L63 30.5a1.6 1.6 0 10-2.3-2.3L39 49.9l-3.8-3.8 5.4-5.4a1.6 1.6 0 00-2.3-2.3l-5.4 5.4-3-3 2.7-2.7a1.6 1.6 0 10-2.3-2.3l-2.7 2.7-3-3 4.4-4.2a1.6 1.6 0 00-2.3-2.3l-4.3 4.3-3-3 2.7-2.7a1.6 1.6 0 10-2.3-2.3L17.2 28l-3-3 5.4-5.4a1.6 1.6 0 00-2.3-2.3l-5.4 5.4-3-3L19.7 8.9l27.9 27.8a1.6 1.6 0 002.3-2.3l-29-29a1.6 1.6 0 00-2.3 0L5.5 18.6a1.6 1.6 0 000 2.3l31.3 31.3-22.7 22.7-5.6 5.6a6.8 6.8 0 000 9.6l1.3 1.3a6.8 6.8 0 004.8 2l1.8-.2a1.6 1.6 0 00-.8-3.1 3.6 3.6 0 01-3.5-.9l-1.3-1.3a3.6 3.6 0 010-5l4.5-4.5 6.3 6.3-3.2 3.2a1.6 1.6 0 102.3 2.3l4.3-4.4 22.7-22.7 31.4 31.4a1.6 1.6 0 002.3 0l13.1-13.1a1.6 1.6 0 000-2.3zM76 17.4a4.8 4.8 0 012.8-1.4l5.1-.7a.5.5 0 01.4.1.5.5 0 01.1.4l-.7 5.2a4.8 4.8 0 01-1.4 2.7l-2.1 2.1-3.2-3.1-3.1-3.1z"/><path d="M80.5 67.3a1.6 1.6 0 000 2.3l1.3 1.4a1.6 1.6 0 102.3-2.3l-1.3-1.3a1.6 1.6 0 00-2.3-.1z"/></svg>